<mxfile host="Electron" modified="2023-09-17T14:42:19.481Z" agent="Mozilla/5.0 (Windows NT 10.0; Win64; x64) AppleWebKit/537.36 (KHTML, like Gecko) draw.io/21.6.8 Chrome/114.0.5735.289 Electron/25.5.0 Safari/537.36" etag="1aJtDxhN3EEdaMFOSlXN" version="21.6.8" type="device">
  <diagram name="Seite-1" id="TmzNgWI3uv1oPNxb7MeP">
    <mxGraphModel dx="1050" dy="725" grid="1" gridSize="10" guides="1" tooltips="1" connect="1" arrows="1" fold="1" page="1" pageScale="1" pageWidth="827" pageHeight="1169" math="0" shadow="0">
      <root>
        <mxCell id="0" />
        <mxCell id="1" parent="0" />
        <mxCell id="MOui2KUkm_2tl8Cvic1i-1" value="ACCIDENT" style="swimlane;whiteSpace=wrap;html=1;" vertex="1" parent="1">
          <mxGeometry x="314" y="520" width="200" height="200" as="geometry" />
        </mxCell>
        <mxCell id="MOui2KUkm_2tl8Cvic1i-58" value="Number of Vehicles" style="text;html=1;align=center;verticalAlign=middle;resizable=0;points=[];autosize=1;strokeColor=none;fillColor=none;" vertex="1" parent="MOui2KUkm_2tl8Cvic1i-1">
          <mxGeometry x="6" y="58" width="130" height="30" as="geometry" />
        </mxCell>
        <mxCell id="MOui2KUkm_2tl8Cvic1i-2" value="" style="ellipse;whiteSpace=wrap;html=1;aspect=fixed;" vertex="1" parent="1">
          <mxGeometry x="570" y="595" width="50" height="50" as="geometry" />
        </mxCell>
        <mxCell id="MOui2KUkm_2tl8Cvic1i-5" value="" style="endArrow=none;html=1;rounded=0;exitX=1;exitY=0.5;exitDx=0;exitDy=0;entryX=0;entryY=0.5;entryDx=0;entryDy=0;" edge="1" parent="1" source="MOui2KUkm_2tl8Cvic1i-1" target="MOui2KUkm_2tl8Cvic1i-2">
          <mxGeometry width="50" height="50" relative="1" as="geometry">
            <mxPoint x="580" y="700" as="sourcePoint" />
            <mxPoint x="630" y="650" as="targetPoint" />
          </mxGeometry>
        </mxCell>
        <mxCell id="MOui2KUkm_2tl8Cvic1i-8" value="" style="ellipse;whiteSpace=wrap;html=1;aspect=fixed;" vertex="1" parent="1">
          <mxGeometry x="676" y="595" width="50" height="50" as="geometry" />
        </mxCell>
        <mxCell id="MOui2KUkm_2tl8Cvic1i-9" value="" style="endArrow=none;html=1;rounded=0;exitX=1;exitY=0.5;exitDx=0;exitDy=0;entryX=0;entryY=0.5;entryDx=0;entryDy=0;" edge="1" parent="1" target="MOui2KUkm_2tl8Cvic1i-8">
          <mxGeometry width="50" height="50" relative="1" as="geometry">
            <mxPoint x="620" y="620" as="sourcePoint" />
            <mxPoint x="736" y="650" as="targetPoint" />
          </mxGeometry>
        </mxCell>
        <mxCell id="MOui2KUkm_2tl8Cvic1i-14" value="" style="ellipse;whiteSpace=wrap;html=1;aspect=fixed;" vertex="1" parent="1">
          <mxGeometry x="782" y="595" width="50" height="50" as="geometry" />
        </mxCell>
        <mxCell id="MOui2KUkm_2tl8Cvic1i-15" value="" style="endArrow=none;html=1;rounded=0;exitX=1;exitY=0.5;exitDx=0;exitDy=0;entryX=0;entryY=0.5;entryDx=0;entryDy=0;" edge="1" parent="1" target="MOui2KUkm_2tl8Cvic1i-14">
          <mxGeometry width="50" height="50" relative="1" as="geometry">
            <mxPoint x="726" y="620" as="sourcePoint" />
            <mxPoint x="842" y="650" as="targetPoint" />
          </mxGeometry>
        </mxCell>
        <mxCell id="MOui2KUkm_2tl8Cvic1i-16" value="" style="ellipse;whiteSpace=wrap;html=1;aspect=fixed;" vertex="1" parent="1">
          <mxGeometry x="896" y="595" width="50" height="50" as="geometry" />
        </mxCell>
        <mxCell id="MOui2KUkm_2tl8Cvic1i-17" value="" style="endArrow=none;html=1;rounded=0;exitX=1;exitY=0.5;exitDx=0;exitDy=0;entryX=0;entryY=0.5;entryDx=0;entryDy=0;" edge="1" parent="1" target="MOui2KUkm_2tl8Cvic1i-16">
          <mxGeometry width="50" height="50" relative="1" as="geometry">
            <mxPoint x="840" y="620" as="sourcePoint" />
            <mxPoint x="956" y="650" as="targetPoint" />
          </mxGeometry>
        </mxCell>
        <mxCell id="MOui2KUkm_2tl8Cvic1i-18" value="Time" style="text;html=1;strokeColor=none;fillColor=none;align=center;verticalAlign=middle;whiteSpace=wrap;rounded=0;" vertex="1" parent="1">
          <mxGeometry x="560" y="645" width="60" height="30" as="geometry" />
        </mxCell>
        <mxCell id="MOui2KUkm_2tl8Cvic1i-19" value="Date" style="text;html=1;strokeColor=none;fillColor=none;align=center;verticalAlign=middle;whiteSpace=wrap;rounded=0;" vertex="1" parent="1">
          <mxGeometry x="671" y="645" width="60" height="30" as="geometry" />
        </mxCell>
        <mxCell id="MOui2KUkm_2tl8Cvic1i-20" value="Month" style="text;html=1;strokeColor=none;fillColor=none;align=center;verticalAlign=middle;whiteSpace=wrap;rounded=0;" vertex="1" parent="1">
          <mxGeometry x="777" y="645" width="60" height="30" as="geometry" />
        </mxCell>
        <mxCell id="MOui2KUkm_2tl8Cvic1i-21" value="Year" style="text;html=1;strokeColor=none;fillColor=none;align=center;verticalAlign=middle;whiteSpace=wrap;rounded=0;" vertex="1" parent="1">
          <mxGeometry x="891" y="645" width="60" height="30" as="geometry" />
        </mxCell>
        <mxCell id="MOui2KUkm_2tl8Cvic1i-26" value="" style="ellipse;whiteSpace=wrap;html=1;aspect=fixed;" vertex="1" parent="1">
          <mxGeometry x="389" y="770" width="50" height="50" as="geometry" />
        </mxCell>
        <mxCell id="MOui2KUkm_2tl8Cvic1i-27" value="" style="endArrow=none;html=1;rounded=0;entryX=0.5;entryY=1;entryDx=0;entryDy=0;exitX=0.5;exitY=0;exitDx=0;exitDy=0;" edge="1" parent="1" source="MOui2KUkm_2tl8Cvic1i-26" target="MOui2KUkm_2tl8Cvic1i-1">
          <mxGeometry width="50" height="50" relative="1" as="geometry">
            <mxPoint x="280" y="810" as="sourcePoint" />
            <mxPoint x="330" y="760" as="targetPoint" />
          </mxGeometry>
        </mxCell>
        <mxCell id="MOui2KUkm_2tl8Cvic1i-28" value="Location" style="text;html=1;strokeColor=none;fillColor=none;align=center;verticalAlign=middle;whiteSpace=wrap;rounded=0;" vertex="1" parent="1">
          <mxGeometry x="439" y="780" width="60" height="30" as="geometry" />
        </mxCell>
        <mxCell id="MOui2KUkm_2tl8Cvic1i-30" value="" style="ellipse;whiteSpace=wrap;html=1;aspect=fixed;" vertex="1" parent="1">
          <mxGeometry x="314" y="840" width="50" height="50" as="geometry" />
        </mxCell>
        <mxCell id="MOui2KUkm_2tl8Cvic1i-32" value="" style="ellipse;whiteSpace=wrap;html=1;aspect=fixed;" vertex="1" parent="1">
          <mxGeometry x="339" y="930" width="50" height="50" as="geometry" />
        </mxCell>
        <mxCell id="MOui2KUkm_2tl8Cvic1i-33" value="" style="ellipse;whiteSpace=wrap;html=1;aspect=fixed;" vertex="1" parent="1">
          <mxGeometry x="250" y="930" width="50" height="50" as="geometry" />
        </mxCell>
        <mxCell id="MOui2KUkm_2tl8Cvic1i-36" value="Coordinates" style="text;html=1;strokeColor=none;fillColor=none;align=center;verticalAlign=middle;whiteSpace=wrap;rounded=0;" vertex="1" parent="1">
          <mxGeometry x="250" y="850" width="60" height="30" as="geometry" />
        </mxCell>
        <mxCell id="MOui2KUkm_2tl8Cvic1i-37" value="Latitude" style="text;html=1;strokeColor=none;fillColor=none;align=center;verticalAlign=middle;whiteSpace=wrap;rounded=0;" vertex="1" parent="1">
          <mxGeometry x="245" y="990" width="60" height="30" as="geometry" />
        </mxCell>
        <mxCell id="MOui2KUkm_2tl8Cvic1i-38" value="Longitude" style="text;html=1;strokeColor=none;fillColor=none;align=center;verticalAlign=middle;whiteSpace=wrap;rounded=0;" vertex="1" parent="1">
          <mxGeometry x="334" y="990" width="60" height="30" as="geometry" />
        </mxCell>
        <mxCell id="MOui2KUkm_2tl8Cvic1i-39" value="Adress" style="text;html=1;strokeColor=none;fillColor=none;align=center;verticalAlign=middle;whiteSpace=wrap;rounded=0;" vertex="1" parent="1">
          <mxGeometry x="530" y="860" width="60" height="30" as="geometry" />
        </mxCell>
        <mxCell id="MOui2KUkm_2tl8Cvic1i-40" value="" style="ellipse;whiteSpace=wrap;html=1;aspect=fixed;" vertex="1" parent="1">
          <mxGeometry x="474" y="840" width="50" height="50" as="geometry" />
        </mxCell>
        <mxCell id="MOui2KUkm_2tl8Cvic1i-41" value="" style="ellipse;whiteSpace=wrap;html=1;aspect=fixed;" vertex="1" parent="1">
          <mxGeometry x="474" y="930" width="50" height="50" as="geometry" />
        </mxCell>
        <mxCell id="MOui2KUkm_2tl8Cvic1i-44" value="" style="endArrow=none;html=1;rounded=0;entryX=0;entryY=1;entryDx=0;entryDy=0;exitX=1;exitY=0;exitDx=0;exitDy=0;" edge="1" parent="1" source="MOui2KUkm_2tl8Cvic1i-30" target="MOui2KUkm_2tl8Cvic1i-26">
          <mxGeometry width="50" height="50" relative="1" as="geometry">
            <mxPoint x="160" y="920" as="sourcePoint" />
            <mxPoint x="210" y="870" as="targetPoint" />
          </mxGeometry>
        </mxCell>
        <mxCell id="MOui2KUkm_2tl8Cvic1i-45" value="" style="endArrow=none;html=1;rounded=0;entryX=0;entryY=1;entryDx=0;entryDy=0;exitX=1;exitY=0;exitDx=0;exitDy=0;" edge="1" parent="1" source="MOui2KUkm_2tl8Cvic1i-33" target="MOui2KUkm_2tl8Cvic1i-30">
          <mxGeometry width="50" height="50" relative="1" as="geometry">
            <mxPoint x="120" y="970" as="sourcePoint" />
            <mxPoint x="170" y="920" as="targetPoint" />
          </mxGeometry>
        </mxCell>
        <mxCell id="MOui2KUkm_2tl8Cvic1i-46" value="" style="endArrow=none;html=1;rounded=0;entryX=0.5;entryY=1;entryDx=0;entryDy=0;exitX=0.38;exitY=0.088;exitDx=0;exitDy=0;exitPerimeter=0;" edge="1" parent="1" source="MOui2KUkm_2tl8Cvic1i-32" target="MOui2KUkm_2tl8Cvic1i-30">
          <mxGeometry width="50" height="50" relative="1" as="geometry">
            <mxPoint x="200" y="1110" as="sourcePoint" />
            <mxPoint x="250" y="1060" as="targetPoint" />
          </mxGeometry>
        </mxCell>
        <mxCell id="MOui2KUkm_2tl8Cvic1i-47" value="" style="endArrow=none;html=1;rounded=0;entryX=1;entryY=1;entryDx=0;entryDy=0;exitX=0;exitY=0;exitDx=0;exitDy=0;" edge="1" parent="1" source="MOui2KUkm_2tl8Cvic1i-40" target="MOui2KUkm_2tl8Cvic1i-26">
          <mxGeometry width="50" height="50" relative="1" as="geometry">
            <mxPoint x="400" y="910" as="sourcePoint" />
            <mxPoint x="450" y="860" as="targetPoint" />
          </mxGeometry>
        </mxCell>
        <mxCell id="MOui2KUkm_2tl8Cvic1i-49" value="" style="endArrow=none;html=1;rounded=0;entryX=0.5;entryY=1;entryDx=0;entryDy=0;exitX=0.5;exitY=0;exitDx=0;exitDy=0;" edge="1" parent="1" source="MOui2KUkm_2tl8Cvic1i-41" target="MOui2KUkm_2tl8Cvic1i-40">
          <mxGeometry width="50" height="50" relative="1" as="geometry">
            <mxPoint x="600" y="970" as="sourcePoint" />
            <mxPoint x="650" y="920" as="targetPoint" />
          </mxGeometry>
        </mxCell>
        <mxCell id="MOui2KUkm_2tl8Cvic1i-50" value="" style="ellipse;whiteSpace=wrap;html=1;aspect=fixed;" vertex="1" parent="1">
          <mxGeometry x="474" y="1020" width="50" height="50" as="geometry" />
        </mxCell>
        <mxCell id="MOui2KUkm_2tl8Cvic1i-51" value="" style="endArrow=none;html=1;rounded=0;entryX=0.5;entryY=1;entryDx=0;entryDy=0;exitX=0.5;exitY=0;exitDx=0;exitDy=0;" edge="1" parent="1" source="MOui2KUkm_2tl8Cvic1i-50">
          <mxGeometry width="50" height="50" relative="1" as="geometry">
            <mxPoint x="600" y="1060" as="sourcePoint" />
            <mxPoint x="499" y="980" as="targetPoint" />
          </mxGeometry>
        </mxCell>
        <mxCell id="MOui2KUkm_2tl8Cvic1i-52" value="" style="ellipse;whiteSpace=wrap;html=1;aspect=fixed;" vertex="1" parent="1">
          <mxGeometry x="474" y="1110" width="50" height="50" as="geometry" />
        </mxCell>
        <mxCell id="MOui2KUkm_2tl8Cvic1i-53" value="" style="endArrow=none;html=1;rounded=0;entryX=0.5;entryY=1;entryDx=0;entryDy=0;exitX=0.5;exitY=0;exitDx=0;exitDy=0;" edge="1" parent="1" source="MOui2KUkm_2tl8Cvic1i-52">
          <mxGeometry width="50" height="50" relative="1" as="geometry">
            <mxPoint x="600" y="1150" as="sourcePoint" />
            <mxPoint x="499" y="1070" as="targetPoint" />
          </mxGeometry>
        </mxCell>
        <mxCell id="MOui2KUkm_2tl8Cvic1i-54" value="Street" style="text;html=1;strokeColor=none;fillColor=none;align=center;verticalAlign=middle;whiteSpace=wrap;rounded=0;" vertex="1" parent="1">
          <mxGeometry x="524" y="940" width="60" height="30" as="geometry" />
        </mxCell>
        <mxCell id="MOui2KUkm_2tl8Cvic1i-55" value="Zip Code" style="text;html=1;strokeColor=none;fillColor=none;align=center;verticalAlign=middle;whiteSpace=wrap;rounded=0;" vertex="1" parent="1">
          <mxGeometry x="524" y="1030" width="60" height="30" as="geometry" />
        </mxCell>
        <mxCell id="MOui2KUkm_2tl8Cvic1i-56" value="Borough" style="text;html=1;strokeColor=none;fillColor=none;align=center;verticalAlign=middle;whiteSpace=wrap;rounded=0;" vertex="1" parent="1">
          <mxGeometry x="524" y="1120" width="60" height="30" as="geometry" />
        </mxCell>
        <mxCell id="MOui2KUkm_2tl8Cvic1i-57" value="Collision ID" style="text;html=1;align=center;verticalAlign=middle;resizable=0;points=[];autosize=1;strokeColor=none;fillColor=none;" vertex="1" parent="1">
          <mxGeometry x="320" y="548" width="80" height="30" as="geometry" />
        </mxCell>
        <mxCell id="MOui2KUkm_2tl8Cvic1i-60" value="" style="ellipse;whiteSpace=wrap;html=1;aspect=fixed;" vertex="1" parent="1">
          <mxGeometry x="210" y="550" width="50" height="50" as="geometry" />
        </mxCell>
        <mxCell id="MOui2KUkm_2tl8Cvic1i-61" value="Contributing Factors" style="text;html=1;strokeColor=none;fillColor=none;align=center;verticalAlign=middle;whiteSpace=wrap;rounded=0;" vertex="1" parent="1">
          <mxGeometry x="205" y="615" width="60" height="30" as="geometry" />
        </mxCell>
        <mxCell id="MOui2KUkm_2tl8Cvic1i-62" value="" style="endArrow=none;html=1;rounded=0;entryX=0;entryY=0.5;entryDx=0;entryDy=0;exitX=1;exitY=0.5;exitDx=0;exitDy=0;" edge="1" parent="1" source="MOui2KUkm_2tl8Cvic1i-60">
          <mxGeometry width="50" height="50" relative="1" as="geometry">
            <mxPoint x="90" y="625" as="sourcePoint" />
            <mxPoint x="314" y="575" as="targetPoint" />
          </mxGeometry>
        </mxCell>
        <mxCell id="MOui2KUkm_2tl8Cvic1i-64" value="per Vehicle" style="text;html=1;strokeColor=none;fillColor=none;align=center;verticalAlign=middle;whiteSpace=wrap;rounded=0;" vertex="1" parent="1">
          <mxGeometry x="140" y="495" width="95" height="30" as="geometry" />
        </mxCell>
        <mxCell id="MOui2KUkm_2tl8Cvic1i-65" value="" style="endArrow=none;html=1;rounded=0;entryX=0.75;entryY=1;entryDx=0;entryDy=0;exitX=0.5;exitY=0;exitDx=0;exitDy=0;" edge="1" parent="1" source="MOui2KUkm_2tl8Cvic1i-60" target="MOui2KUkm_2tl8Cvic1i-64">
          <mxGeometry width="50" height="50" relative="1" as="geometry">
            <mxPoint x="130" y="625" as="sourcePoint" />
            <mxPoint x="180" y="575" as="targetPoint" />
          </mxGeometry>
        </mxCell>
        <mxCell id="MOui2KUkm_2tl8Cvic1i-66" value="" style="ellipse;whiteSpace=wrap;html=1;aspect=fixed;" vertex="1" parent="1">
          <mxGeometry x="494" y="417" width="50" height="50" as="geometry" />
        </mxCell>
        <mxCell id="MOui2KUkm_2tl8Cvic1i-68" value="" style="endArrow=none;html=1;rounded=0;entryX=0.82;entryY=0.016;entryDx=0;entryDy=0;exitX=0.5;exitY=1;exitDx=0;exitDy=0;entryPerimeter=0;" edge="1" parent="1" source="MOui2KUkm_2tl8Cvic1i-66" target="MOui2KUkm_2tl8Cvic1i-1">
          <mxGeometry width="50" height="50" relative="1" as="geometry">
            <mxPoint x="265" y="470" as="sourcePoint" />
            <mxPoint x="429" y="500" as="targetPoint" />
          </mxGeometry>
        </mxCell>
        <mxCell id="MOui2KUkm_2tl8Cvic1i-69" value="Number of Persons killed" style="text;html=1;strokeColor=none;fillColor=none;align=center;verticalAlign=middle;whiteSpace=wrap;rounded=0;" vertex="1" parent="1">
          <mxGeometry x="544" y="430" width="101" height="30" as="geometry" />
        </mxCell>
        <mxCell id="MOui2KUkm_2tl8Cvic1i-70" value="" style="ellipse;whiteSpace=wrap;html=1;aspect=fixed;" vertex="1" parent="1">
          <mxGeometry x="415" y="320" width="50" height="50" as="geometry" />
        </mxCell>
        <mxCell id="MOui2KUkm_2tl8Cvic1i-71" value="" style="ellipse;whiteSpace=wrap;html=1;aspect=fixed;" vertex="1" parent="1">
          <mxGeometry x="489" y="320" width="50" height="50" as="geometry" />
        </mxCell>
        <mxCell id="MOui2KUkm_2tl8Cvic1i-72" value="" style="ellipse;whiteSpace=wrap;html=1;aspect=fixed;" vertex="1" parent="1">
          <mxGeometry x="559" y="320" width="50" height="50" as="geometry" />
        </mxCell>
        <mxCell id="MOui2KUkm_2tl8Cvic1i-74" value="Pedestrians" style="text;html=1;strokeColor=none;fillColor=none;align=center;verticalAlign=middle;whiteSpace=wrap;rounded=0;" vertex="1" parent="1">
          <mxGeometry x="410" y="290" width="60" height="30" as="geometry" />
        </mxCell>
        <mxCell id="MOui2KUkm_2tl8Cvic1i-75" value="Cyclists" style="text;html=1;strokeColor=none;fillColor=none;align=center;verticalAlign=middle;whiteSpace=wrap;rounded=0;" vertex="1" parent="1">
          <mxGeometry x="484" y="290" width="60" height="30" as="geometry" />
        </mxCell>
        <mxCell id="MOui2KUkm_2tl8Cvic1i-76" value="Motorists" style="text;html=1;strokeColor=none;fillColor=none;align=center;verticalAlign=middle;whiteSpace=wrap;rounded=0;" vertex="1" parent="1">
          <mxGeometry x="559" y="290" width="60" height="30" as="geometry" />
        </mxCell>
        <mxCell id="MOui2KUkm_2tl8Cvic1i-77" value="" style="endArrow=none;html=1;rounded=0;entryX=0;entryY=0;entryDx=0;entryDy=0;exitX=1;exitY=1;exitDx=0;exitDy=0;" edge="1" parent="1" source="MOui2KUkm_2tl8Cvic1i-70" target="MOui2KUkm_2tl8Cvic1i-66">
          <mxGeometry width="50" height="50" relative="1" as="geometry">
            <mxPoint x="345" y="450" as="sourcePoint" />
            <mxPoint x="395" y="400" as="targetPoint" />
          </mxGeometry>
        </mxCell>
        <mxCell id="MOui2KUkm_2tl8Cvic1i-78" value="" style="endArrow=none;html=1;rounded=0;entryX=0.5;entryY=1;entryDx=0;entryDy=0;exitX=0.5;exitY=0;exitDx=0;exitDy=0;" edge="1" parent="1" source="MOui2KUkm_2tl8Cvic1i-66" target="MOui2KUkm_2tl8Cvic1i-71">
          <mxGeometry width="50" height="50" relative="1" as="geometry">
            <mxPoint x="395" y="460" as="sourcePoint" />
            <mxPoint x="445" y="410" as="targetPoint" />
          </mxGeometry>
        </mxCell>
        <mxCell id="MOui2KUkm_2tl8Cvic1i-79" value="" style="endArrow=none;html=1;rounded=0;entryX=0.5;entryY=1;entryDx=0;entryDy=0;exitX=1;exitY=0;exitDx=0;exitDy=0;" edge="1" parent="1" source="MOui2KUkm_2tl8Cvic1i-66" target="MOui2KUkm_2tl8Cvic1i-72">
          <mxGeometry width="50" height="50" relative="1" as="geometry">
            <mxPoint x="715" y="440" as="sourcePoint" />
            <mxPoint x="765" y="390" as="targetPoint" />
          </mxGeometry>
        </mxCell>
        <mxCell id="MOui2KUkm_2tl8Cvic1i-80" value="" style="ellipse;whiteSpace=wrap;html=1;aspect=fixed;" vertex="1" parent="1">
          <mxGeometry x="305.5" y="417" width="50" height="50" as="geometry" />
        </mxCell>
        <mxCell id="MOui2KUkm_2tl8Cvic1i-81" value="" style="endArrow=none;html=1;rounded=0;entryX=0.82;entryY=0.016;entryDx=0;entryDy=0;exitX=0.5;exitY=1;exitDx=0;exitDy=0;entryPerimeter=0;" edge="1" parent="1" source="MOui2KUkm_2tl8Cvic1i-80">
          <mxGeometry width="50" height="50" relative="1" as="geometry">
            <mxPoint x="121.5" y="467" as="sourcePoint" />
            <mxPoint x="334.5" y="520" as="targetPoint" />
          </mxGeometry>
        </mxCell>
        <mxCell id="MOui2KUkm_2tl8Cvic1i-82" value="Number of Persons injured" style="text;html=1;strokeColor=none;fillColor=none;align=center;verticalAlign=middle;whiteSpace=wrap;rounded=0;" vertex="1" parent="1">
          <mxGeometry x="213" y="460" width="101" height="30" as="geometry" />
        </mxCell>
        <mxCell id="MOui2KUkm_2tl8Cvic1i-83" value="" style="ellipse;whiteSpace=wrap;html=1;aspect=fixed;" vertex="1" parent="1">
          <mxGeometry x="160" y="380" width="50" height="50" as="geometry" />
        </mxCell>
        <mxCell id="MOui2KUkm_2tl8Cvic1i-84" value="" style="ellipse;whiteSpace=wrap;html=1;aspect=fixed;" vertex="1" parent="1">
          <mxGeometry x="185" y="310" width="50" height="50" as="geometry" />
        </mxCell>
        <mxCell id="MOui2KUkm_2tl8Cvic1i-85" value="" style="ellipse;whiteSpace=wrap;html=1;aspect=fixed;" vertex="1" parent="1">
          <mxGeometry x="265" y="310" width="50" height="50" as="geometry" />
        </mxCell>
        <mxCell id="MOui2KUkm_2tl8Cvic1i-86" value="Pedestrians" style="text;html=1;strokeColor=none;fillColor=none;align=center;verticalAlign=middle;whiteSpace=wrap;rounded=0;" vertex="1" parent="1">
          <mxGeometry x="100" y="390" width="60" height="30" as="geometry" />
        </mxCell>
        <mxCell id="MOui2KUkm_2tl8Cvic1i-87" value="Cyclists" style="text;html=1;strokeColor=none;fillColor=none;align=center;verticalAlign=middle;whiteSpace=wrap;rounded=0;" vertex="1" parent="1">
          <mxGeometry x="120" y="310" width="60" height="30" as="geometry" />
        </mxCell>
        <mxCell id="MOui2KUkm_2tl8Cvic1i-88" value="Motorists" style="text;html=1;strokeColor=none;fillColor=none;align=center;verticalAlign=middle;whiteSpace=wrap;rounded=0;" vertex="1" parent="1">
          <mxGeometry x="260" y="280" width="60" height="30" as="geometry" />
        </mxCell>
        <mxCell id="MOui2KUkm_2tl8Cvic1i-89" value="" style="endArrow=none;html=1;rounded=0;entryX=0;entryY=0.5;entryDx=0;entryDy=0;exitX=1;exitY=0.5;exitDx=0;exitDy=0;" edge="1" parent="1" source="MOui2KUkm_2tl8Cvic1i-83" target="MOui2KUkm_2tl8Cvic1i-80">
          <mxGeometry width="50" height="50" relative="1" as="geometry">
            <mxPoint x="156.5" y="447" as="sourcePoint" />
            <mxPoint x="206.5" y="397" as="targetPoint" />
          </mxGeometry>
        </mxCell>
        <mxCell id="MOui2KUkm_2tl8Cvic1i-90" value="" style="endArrow=none;html=1;rounded=0;entryX=1;entryY=1;entryDx=0;entryDy=0;exitX=0;exitY=0;exitDx=0;exitDy=0;" edge="1" parent="1" source="MOui2KUkm_2tl8Cvic1i-80" target="MOui2KUkm_2tl8Cvic1i-84">
          <mxGeometry width="50" height="50" relative="1" as="geometry">
            <mxPoint x="206.5" y="457" as="sourcePoint" />
            <mxPoint x="256.5" y="407" as="targetPoint" />
          </mxGeometry>
        </mxCell>
        <mxCell id="MOui2KUkm_2tl8Cvic1i-91" value="" style="endArrow=none;html=1;rounded=0;entryX=1;entryY=1;entryDx=0;entryDy=0;exitX=0.5;exitY=0;exitDx=0;exitDy=0;" edge="1" parent="1" source="MOui2KUkm_2tl8Cvic1i-80" target="MOui2KUkm_2tl8Cvic1i-85">
          <mxGeometry width="50" height="50" relative="1" as="geometry">
            <mxPoint x="526.5" y="437" as="sourcePoint" />
            <mxPoint x="576.5" y="387" as="targetPoint" />
          </mxGeometry>
        </mxCell>
        <mxCell id="MOui2KUkm_2tl8Cvic1i-92" value="" style="ellipse;whiteSpace=wrap;html=1;aspect=fixed;" vertex="1" parent="1">
          <mxGeometry x="210" y="655" width="50" height="50" as="geometry" />
        </mxCell>
        <mxCell id="MOui2KUkm_2tl8Cvic1i-93" value="Vehicle types" style="text;html=1;strokeColor=none;fillColor=none;align=center;verticalAlign=middle;whiteSpace=wrap;rounded=0;" vertex="1" parent="1">
          <mxGeometry x="205" y="720" width="60" height="30" as="geometry" />
        </mxCell>
        <mxCell id="MOui2KUkm_2tl8Cvic1i-94" value="" style="endArrow=none;html=1;rounded=0;entryX=0;entryY=0.5;entryDx=0;entryDy=0;exitX=1;exitY=0.5;exitDx=0;exitDy=0;" edge="1" parent="1" source="MOui2KUkm_2tl8Cvic1i-92">
          <mxGeometry width="50" height="50" relative="1" as="geometry">
            <mxPoint x="90" y="730" as="sourcePoint" />
            <mxPoint x="314" y="680" as="targetPoint" />
          </mxGeometry>
        </mxCell>
        <mxCell id="MOui2KUkm_2tl8Cvic1i-95" value="per Vehicle" style="text;html=1;strokeColor=none;fillColor=none;align=center;verticalAlign=middle;whiteSpace=wrap;rounded=0;" vertex="1" parent="1">
          <mxGeometry x="85" y="665" width="95" height="30" as="geometry" />
        </mxCell>
        <mxCell id="MOui2KUkm_2tl8Cvic1i-96" value="" style="endArrow=none;html=1;rounded=0;entryX=1;entryY=0.5;entryDx=0;entryDy=0;exitX=0;exitY=0.5;exitDx=0;exitDy=0;" edge="1" parent="1" source="MOui2KUkm_2tl8Cvic1i-92" target="MOui2KUkm_2tl8Cvic1i-95">
          <mxGeometry width="50" height="50" relative="1" as="geometry">
            <mxPoint x="130" y="730" as="sourcePoint" />
            <mxPoint x="180" y="680" as="targetPoint" />
          </mxGeometry>
        </mxCell>
        <mxCell id="MOui2KUkm_2tl8Cvic1i-98" value="" style="endArrow=none;html=1;rounded=0;entryX=0;entryY=0.5;entryDx=0;entryDy=0;" edge="1" parent="1" target="MOui2KUkm_2tl8Cvic1i-66">
          <mxGeometry width="50" height="50" relative="1" as="geometry">
            <mxPoint x="390" y="390" as="sourcePoint" />
            <mxPoint x="340" y="160" as="targetPoint" />
          </mxGeometry>
        </mxCell>
        <mxCell id="MOui2KUkm_2tl8Cvic1i-99" value="" style="endArrow=none;html=1;rounded=0;entryX=1;entryY=0.5;entryDx=0;entryDy=0;" edge="1" parent="1" target="MOui2KUkm_2tl8Cvic1i-80">
          <mxGeometry width="50" height="50" relative="1" as="geometry">
            <mxPoint x="390" y="390" as="sourcePoint" />
            <mxPoint x="300" y="200" as="targetPoint" />
          </mxGeometry>
        </mxCell>
        <mxCell id="MOui2KUkm_2tl8Cvic1i-104" value="" style="verticalLabelPosition=bottom;verticalAlign=top;html=1;shape=mxgraph.basic.arc;startAngle=0.3;endAngle=0.581636142962001;" vertex="1" parent="1">
          <mxGeometry x="359" y="365" width="55" height="55" as="geometry" />
        </mxCell>
        <mxCell id="MOui2KUkm_2tl8Cvic1i-105" value="Total Number of Victims" style="text;html=1;strokeColor=none;fillColor=none;align=center;verticalAlign=middle;whiteSpace=wrap;rounded=0;" vertex="1" parent="1">
          <mxGeometry x="340" y="350" width="60" height="30" as="geometry" />
        </mxCell>
      </root>
    </mxGraphModel>
  </diagram>
</mxfile>
